<?xml version="1.0" standalone="no"?>
<!DOCTYPE svg PUBLIC "-//W3C//DTD SVG 20010904//EN"
 "http://www.w3.org/TR/2001/REC-SVG-20010904/DTD/svg10.dtd">
<svg version="1.0" xmlns="http://www.w3.org/2000/svg"
 width="196.000000pt" height="191.000000pt" viewBox="0 0 196.000000 191.000000"
 preserveAspectRatio="xMidYMid meet">

<g transform="translate(0.000000,191.000000) scale(0.100000,-0.100000)"
fill="#000000" stroke="none">
<path d="M149 1877 c-105 -71 -160 -329 -130 -612 28 -263 98 -431 236 -570
111 -112 228 -173 415 -217 115 -26 405 -35 598 -18 78 7 145 10 148 7 3 -2
-39 -38 -93 -78 -112 -85 -363 -327 -363 -352 0 -10 11 -19 27 -23 56 -14 142
37 313 185 170 148 336 260 455 309 147 59 205 99 205 138 0 31 -34 47 -138
69 -165 33 -247 72 -481 227 -218 146 -254 157 -348 114 -139 -65 -77 -146
285 -366 39 -25 72 -50 72 -57 0 -19 -83 -26 -239 -20 -291 11 -478 81 -633
238 -149 150 -228 376 -227 654 0 50 4 124 9 165 23 191 23 195 5 213 -23 24
-76 21 -116 -6z"/>
</g>
</svg>
