<svg width="537" height="333" viewBox="0 0 537 333" fill="none" xmlns="http://www.w3.org/2000/svg">
  <defs>
   <clipPath id="left-to-right">
     <rect x="0" y="0" width="0" height="333">
       <animate attributeName="width" values="0;537" dur="2s" fill="freeze"/>   
     </rect>
    </clipPath>
  </defs>
  <path d="M5.45856 281.4C8.2146 235.62 12.0423 188.943 16.421 143.545C17.948 127.713 19.3631 110.707 21.3762 95.2875C21.6838 92.9319 22.2726 101.422 22.4071 102.612C23.942 116.191 24.6537 130.505 25.3335 145.103C25.8487 156.166 26.7611 166.815 27.062 178.094C27.4743 193.543 27.487 210.205 27.0636 226.093C26.6348 242.179 26.313 257.613 26.4409 273.401C26.4683 276.788 25.5924 287.001 26.1342 283.734C28.1253 271.73 29.8986 259.456 31.9795 247.468C35.9072 224.842 40.1092 202.151 43.1526 178.587C44.53 167.923 45.6999 157.172 47.0133 146.474C48.6351 133.263 49.8358 119.723 51.4708 106.485C51.9228 102.824 52.3781 99.2721 52.6042 95.5148C52.9475 89.8139 53.1243 89.9605 52.9555 96.0842C52.531 111.474 53.1732 126.692 53.2863 141.815C53.4377 162.074 52.8296 182.878 52.7033 203.307C52.6391 213.682 52.6084 223.955 52.6257 234.283C52.6444 245.409 52.2126 256.258 51.9599 267.462C51.9199 269.238 51.8148 274.44 52.0305 272.693C52.3178 270.367 52.3695 267.634 52.618 265.262C53.9351 252.692 55.8522 240.402 57.3697 227.954C60.0117 206.281 62.7735 184.666 64.8049 162.659C66.0242 149.451 67.06 135.626 68.6364 122.591C69.7558 113.335 71.2553 104.369 72.4262 95.1469C73.7198 84.959 74.5918 74.4898 75.7939 64.2383C77.2217 52.0617 78.3672 40.4412 79.3532 28.1089C81.4123 2.35324 77.1061 79.7197 76.0423 105.516C74.5923 140.676 72.947 175.893 71.6529 211.026C70.6785 237.483 70.387 263.755 69.4098 290.198C69.0395 300.218 68.655 309.984 68.5666 319.922C68.529 324.142 68.1675 325.46 68.8078 321.155C73.8456 287.28 79.113 253.265 83.3514 218.696C85.2358 203.327 87.0008 188.012 89.1279 172.806C91.3045 157.246 94.5742 140.52 95.6591 124.274C96.9241 105.332 95.0168 161.897 94.9498 180.588C94.8932 196.371 95.2297 212.243 94.8906 228.14C94.7152 236.364 94.3592 243.925 94.5971 251.933C94.6123 252.443 95.0262 260.398 95.1234 260.073C96.0217 257.07 96.6771 251.409 97.2502 248.028C100.001 231.802 102.71 215.508 105.312 199.109C111.323 161.221 116.695 121.875 121.793 83.0964C123.234 72.1339 123.987 59.948 125.789 49.3193C125.814 49.1685 125.785 59.7042 125.74 61.7759C124.415 121.583 124.213 181.884 127.235 238.921C127.633 246.423 128.17 253.751 128.386 261.434C128.506 265.695 128.335 270.935 128.602 275.013C128.758 277.398 128.558 280.319 128.777 282.584C128.828 283.11 129.112 281.727 129.179 281.153C129.908 274.903 130.563 268.636 131.374 262.436C137.388 216.494 143.955 170.943 148.961 124.273C150.13 113.379 151.365 102.393 152.341 91.4184C152.567 88.8687 152.85 77.9561 153.715 76.7312M276.506 69.5011C274.211 115.297 270.853 161.997 266.931 207.421C265.564 223.262 264.32 240.276 262.462 255.708C262.178 258.066 261.504 249.579 261.357 248.39C259.686 234.821 258.83 220.512 258.003 205.919C257.377 194.859 256.357 184.216 255.943 172.94C255.375 157.494 255.195 140.833 255.458 124.943C255.725 108.854 255.891 93.4186 255.604 77.6323C255.543 74.2458 256.316 64.0276 255.807 67.2972C253.937 79.3134 252.287 91.5985 250.327 103.599C246.627 126.249 242.654 148.966 239.848 172.548C238.578 183.22 237.516 193.978 236.311 204.685C234.822 217.905 233.757 231.452 232.256 244.7C231.841 248.363 231.421 251.918 231.233 255.677C230.947 261.38 230.769 261.234 230.876 255.11C231.145 239.717 230.35 224.504 230.085 209.383C229.729 189.125 230.128 168.318 230.049 147.889C230.008 137.513 229.936 127.241 229.814 116.913C229.684 105.788 230.006 94.9367 230.146 83.7306C230.168 81.9547 230.221 76.7522 230.023 78.5005C229.759 80.8282 229.735 83.5612 229.51 85.9347C228.32 98.5131 226.526 110.815 225.134 123.272C222.71 144.96 220.166 166.593 218.356 188.611C217.27 201.827 216.374 215.658 214.929 228.702C213.902 237.965 212.493 246.94 211.415 256.169C210.224 266.365 209.458 276.839 208.359 287.098C207.053 299.283 206.025 310.911 205.163 323.249C203.363 349.016 206.891 271.625 207.695 245.823C208.791 210.655 210.081 175.429 211.022 140.289C211.73 113.827 211.757 87.5536 212.468 61.1051C212.737 51.0835 213.023 41.3155 213.012 31.3766C213.007 27.1573 213.355 25.8365 212.758 30.1455C208.062 64.051 203.137 98.0977 199.246 132.693C197.517 148.073 195.906 163.399 193.932 178.618C191.912 194.191 188.811 210.937 187.89 227.189C186.815 246.139 188.153 189.563 188.032 170.872C187.93 155.089 187.434 139.22 187.613 123.322C187.705 115.097 187.985 107.534 187.666 99.527C187.646 99.0179 187.152 91.0651 187.058 91.3906C186.19 94.3993 185.592 100.064 185.053 103.448C182.465 119.692 179.921 136.002 177.484 152.417C171.854 190.342 166.879 229.72 162.171 268.529C160.841 279.501 160.211 291.691 158.516 302.331C158.492 302.482 158.414 291.946 158.439 289.874C159.162 230.06 158.756 169.76 155.16 112.744C154.687 105.245 154.077 97.9205 153.783 90.239C153.62 85.9789 153.738 80.7376 153.43 76.6618C153.25 74.2781 153.421 71.3557 153.179 69.0925C153.123 68.5666 152.853 69.9509 152.792 70.5259C152.125 76.7797 151.534 83.0506 150.785 89.2557C145.234 135.234 139.125 180.825 134.589 227.525C133.531 238.426 132.406 249.419 131.541 260.4C131.34 262.951 131.167 273.865 130.314 275.095M261.091 263.971C263.847 218.19 267.675 171.514 272.053 126.115C273.58 110.284 274.995 93.2776 277.009 77.8578C277.316 75.5022 277.905 83.9927 278.039 85.1825C279.574 98.7615 280.286 113.076 280.966 127.674C281.481 138.736 282.393 149.386 282.694 160.665C283.107 176.113 283.119 192.775 282.696 208.663C282.267 224.75 281.945 240.183 282.073 255.971C282.101 259.358 281.225 269.571 281.767 266.305C283.758 254.3 285.531 242.026 287.612 230.038C291.54 207.412 295.742 184.721 298.785 161.158C300.162 150.493 301.332 139.742 302.646 129.044C304.267 115.833 305.468 102.293 307.103 89.055C307.555 85.3948 308.01 81.8424 308.237 78.0851C308.58 72.3842 308.757 72.5308 308.588 78.6545C308.163 94.0446 308.806 109.262 308.919 124.385C309.07 144.644 308.462 165.448 308.336 185.877C308.272 196.253 308.241 206.525 308.258 216.854C308.277 227.979 307.845 238.828 307.592 250.033C307.552 251.808 307.447 257.011 307.663 255.264C307.95 252.938 308.002 250.205 308.25 247.833C309.568 235.262 311.485 222.972 313.002 210.524C315.644 188.852 318.406 167.236 320.437 145.23C321.657 132.021 322.692 118.196 324.269 105.162C325.388 95.9055 326.888 86.9391 328.059 77.7172C329.352 67.5293 330.224 57.0601 331.426 46.8087C332.854 34.632 334 23.0115 334.986 10.6792C337.045 -15.0764 332.739 62.29 331.675 88.0868C330.225 123.246 328.579 158.464 327.285 193.597C326.311 220.053 326.019 246.325 325.042 272.769C324.672 282.788 324.287 292.554 324.199 302.493C324.161 306.712 323.8 308.031 324.44 303.725C329.478 269.85 334.745 235.836 338.984 201.267C340.868 185.898 342.633 170.582 344.76 155.376C346.937 139.816 350.207 123.09 351.291 106.844C352.556 87.9021 350.649 144.467 350.582 163.159C350.526 178.942 350.862 194.813 350.523 210.71C350.348 218.934 349.992 226.495 350.229 234.504C350.245 235.013 350.659 242.969 350.756 242.644C351.654 239.64 352.309 233.979 352.883 230.599C355.633 214.372 358.342 198.078 360.944 181.679C366.955 143.791 372.327 104.445 377.425 65.6667C378.866 54.7042 379.619 42.5183 381.421 31.8896C381.447 31.7388 381.418 42.2745 381.372 44.3462C380.047 104.153 379.846 164.455 382.868 221.491C383.265 228.993 383.802 236.321 384.018 244.004C384.138 248.265 383.967 253.506 384.234 257.583C384.391 259.968 384.19 262.889 384.41 265.154C384.46 265.68 384.744 264.297 384.811 263.723C385.54 257.473 386.195 251.206 387.007 245.006C393.02 199.064 399.588 153.513 404.593 106.843C405.762 95.9492 406.997 84.9635 407.973 73.9887C408.2 71.439 408.482 60.5264 409.348 59.3015M532.138 52.0714C529.843 97.8677 526.485 144.567 522.564 189.991C521.196 205.832 519.952 222.846 518.094 238.278C517.811 240.636 517.136 232.149 516.99 230.96C515.318 217.392 514.463 203.082 513.636 188.489C513.009 177.43 511.99 166.787 511.575 155.51C511.007 140.065 510.827 123.403 511.09 107.513C511.357 91.4243 511.524 75.9889 511.237 60.2026C511.175 56.8161 511.948 46.5979 511.439 49.8675C509.569 61.8837 507.92 74.1688 505.959 86.1692C502.26 108.819 498.286 131.536 495.48 155.118C494.21 165.791 493.148 176.549 491.943 187.255C490.454 200.475 489.39 214.023 487.888 227.271C487.473 230.933 487.053 234.489 486.865 238.247C486.579 243.95 486.401 243.805 486.508 237.68C486.778 222.288 485.982 207.075 485.717 191.953C485.362 171.695 485.76 150.888 485.681 130.459C485.641 120.084 485.568 109.811 485.447 99.4832C485.316 88.3582 485.638 77.507 485.778 66.3009C485.801 64.5251 485.853 59.3225 485.655 61.0708C485.391 63.3985 485.367 66.1315 485.142 68.505C483.952 81.0834 482.159 93.3851 480.767 105.842C478.343 127.531 475.799 149.163 473.989 171.181C472.903 184.397 472.006 198.228 470.561 211.272C469.535 220.535 468.125 229.511 467.047 238.74C465.856 248.935 465.09 259.41 463.991 269.668C462.686 281.854 461.657 293.481 460.796 305.819C458.996 331.587 462.523 254.196 463.327 228.393C464.423 193.226 465.714 157.999 466.654 122.859C467.362 96.3974 467.389 70.1239 468.1 43.6754C468.37 33.6538 468.656 23.8858 468.644 13.9469C468.639 9.7276 468.987 8.40682 468.391 12.7158C463.694 46.6213 458.769 80.668 454.879 115.263C453.149 130.643 451.538 145.969 449.564 161.188C447.545 176.761 444.443 193.507 443.522 209.76C442.448 228.709 443.786 172.134 443.664 153.442C443.562 137.659 443.066 121.79 443.245 105.892C443.338 97.6671 443.617 90.1039 443.299 82.0973C443.279 81.5882 442.785 73.6354 442.691 73.9609C441.823 76.9697 441.224 82.6347 440.685 86.0188C438.098 102.262 435.553 118.573 433.116 134.987C427.487 172.912 422.511 212.29 417.804 251.1C416.473 262.071 415.843 274.261 414.148 284.901C414.124 285.052 414.047 274.516 414.072 272.444C414.794 212.631 414.389 152.33 410.793 95.3144C410.32 87.815 409.709 80.4908 409.416 72.8093C409.253 68.5492 409.371 63.3079 409.063 59.2321C408.882 56.8485 409.053 53.926 408.811 51.6628C408.755 51.1369 408.485 52.5213 408.424 53.0963C407.758 59.3501 407.166 65.6209 406.417 71.826C400.866 117.805 394.757 163.395 390.222 210.095C389.163 220.996 388.039 231.989 387.173 242.97C386.972 245.521 386.8 256.435 385.946 257.665" 
  stroke="black" stroke-width="9" stroke-linecap="round" clip-path="url(#left-to-right)" />
</svg>
