<?xml version="1.0" standalone="no"?>
<!DOCTYPE svg PUBLIC "-//W3C//DTD SVG 20010904//EN"
 "http://www.w3.org/TR/2001/REC-SVG-20010904/DTD/svg10.dtd">
<svg version="1.0" xmlns="http://www.w3.org/2000/svg"
 width="180.000000pt" height="161.000000pt" viewBox="0 0 180.000000 161.000000"
 preserveAspectRatio="xMidYMid meet">

<g transform="translate(0.000000,161.000000) scale(0.100000,-0.100000)"
fill="#000000" stroke="none">
<path d="M206 1500 c-65 -20 -111 -89 -103 -157 5 -51 28 -89 68 -111 l29 -17
0 -406 0 -405 -31 -23 c-66 -49 -86 -122 -51 -191 51 -102 204 -108 260 -10
l17 30 505 0 505 0 17 -30 c56 -98 209 -92 260 10 35 69 15 142 -51 191 l-31
23 0 405 0 406 29 17 c37 20 60 56 68 101 8 49 -2 81 -38 122 -62 70 -159 68
-222 -5 l-34 -40 -503 0 -503 0 -34 40 c-21 24 -48 43 -71 50 -42 11 -47 11
-86 0z m72 -106 c12 -8 22 -26 22 -38 0 -54 -77 -64 -95 -12 -8 24 -6 31 14
47 28 23 31 23 59 3z m1300 0 c12 -8 22 -26 22 -38 0 -54 -77 -64 -95 -12 -8
24 -6 31 14 47 28 23 31 23 59 3z m-156 -114 c10 -17 31 -38 48 -48 l30 -17 0
-402 0 -402 -50 -51 -51 -50 -499 0 -499 0 -51 50 -50 51 0 402 0 402 30 17
c17 10 38 31 48 48 l17 30 505 0 505 0 17 -30z m-1144 -986 c12 -8 22 -26 22
-38 0 -54 -77 -64 -95 -12 -8 24 -6 31 14 47 28 23 31 23 59 3z m1300 0 c12
-8 22 -26 22 -38 0 -54 -77 -64 -95 -12 -8 24 -6 31 14 47 28 23 31 23 59 3z"/>
<path d="M506 1200 c-16 -5 -40 -19 -53 -32 -47 -43 -53 -68 -53 -210 0 -151
11 -186 69 -225 32 -22 43 -23 231 -23 188 0 199 1 231 23 58 39 69 74 69 228
0 125 -2 139 -22 169 -49 72 -59 75 -261 77 -100 1 -195 -2 -211 -7z m372
-106 c21 -14 22 -22 22 -138 0 -81 -4 -126 -12 -134 -8 -8 -65 -12 -190 -12
-165 0 -178 1 -188 19 -5 11 -10 71 -10 135 0 151 -7 146 200 146 125 0 160
-3 178 -16z"/>
<path d="M1123 895 c-25 -18 -30 -54 -11 -73 7 -7 40 -12 78 -12 106 0 110 -6
110 -154 0 -93 -3 -126 -14 -135 -9 -8 -69 -11 -192 -9 l-179 3 -11 35 c-6 19
-21 40 -33 48 -18 13 -24 12 -47 -3 -23 -15 -26 -22 -21 -56 7 -50 29 -84 70
-109 29 -18 51 -20 228 -20 187 0 198 1 230 23 58 39 69 74 69 228 0 125 -2
139 -22 169 -40 58 -69 73 -155 77 -61 4 -83 1 -100 -12z"/>
</g>
</svg>
