<?xml version="1.0" standalone="no"?>
<!DOCTYPE svg PUBLIC "-//W3C//DTD SVG 20010904//EN"
 "http://www.w3.org/TR/2001/REC-SVG-20010904/DTD/svg10.dtd">
<svg version="1.0" xmlns="http://www.w3.org/2000/svg"
 width="161.000000pt" height="161.000000pt" viewBox="0 0 161.000000 161.000000"
 preserveAspectRatio="xMidYMid meet">

<g transform="translate(0.000000,161.000000) scale(0.100000,-0.100000)"
fill="#000000" stroke="none">
<path d="M1032 1603 c-21 -8 -34 -41 -23 -61 5 -10 52 -54 103 -98 l92 -79
-374 -6 c-320 -5 -383 -8 -430 -23 -216 -69 -365 -250 -395 -479 -8 -58 12
-97 49 -97 34 0 43 16 55 100 30 203 184 360 383 391 34 5 211 8 393 7 l329
-3 -101 -84 c-56 -47 -105 -91 -108 -99 -8 -23 22 -62 48 -62 15 0 81 48 185
135 138 115 162 140 162 163 0 24 -24 48 -166 165 -159 132 -174 142 -202 130z"/>
<path d="M1520 840 c-14 -14 -20 -33 -20 -64 0 -134 -93 -285 -221 -359 -94
-54 -123 -57 -516 -55 l-361 3 99 83 c73 61 99 89 99 106 0 23 -28 56 -48 56
-13 0 -321 -253 -340 -279 -7 -10 -9 -26 -6 -36 11 -28 325 -285 349 -285 27
0 45 18 45 46 0 17 -28 46 -99 106 -55 46 -100 86 -100 91 -1 4 165 7 367 7
406 0 433 3 546 63 79 42 183 146 224 223 60 115 82 263 44 297 -24 22 -38 21
-62 -3z"/>
</g>
</svg>
