<?xml version="1.0" standalone="no"?>
<!DOCTYPE svg PUBLIC "-//W3C//DTD SVG 20010904//EN"
 "http://www.w3.org/TR/2001/REC-SVG-20010904/DTD/svg10.dtd">
<svg version="1.0" xmlns="http://www.w3.org/2000/svg"
 width="141.000000pt" height="161.000000pt" viewBox="0 0 141.000000 161.000000"
 preserveAspectRatio="xMidYMid meet">

<g transform="translate(0.000000,161.000000) scale(0.100000,-0.100000)"
fill="#000000" stroke="none">
<path d="M137 1495 c-22 -7 -50 -24 -64 -37 -55 -51 -53 -32 -53 -656 l0 -579
23 -33 c12 -18 35 -43 50 -54 28 -21 38 -21 616 -24 l587 -2 34 23 c19 12 45
38 57 57 l23 34 -2 592 -3 593 -30 32 c-67 71 -48 69 -655 68 -436 0 -553 -3
-583 -14z m472 -201 c21 -26 21 -37 21 -454 l0 -428 -32 -27 -31 -26 -159 3
c-154 3 -161 4 -179 27 -18 22 -19 45 -19 454 0 428 0 431 22 454 21 22 27 23
189 23 l168 0 20 -26z m598 4 c23 -21 23 -23 23 -279 0 -327 14 -303 -176
-307 -174 -5 -199 0 -225 41 -18 30 -19 48 -17 274 4 315 -12 293 212 293 150
0 161 -1 183 -22z"/>
</g>
</svg>
